<svg id="Слой_1" data-name="Слой 1" xmlns="http://www.w3.org/2000/svg" viewBox="0 0 630 666"><defs><style>.cls-1{fill:#29abe2;}</style></defs><path class="cls-1" d="M959.6,227.49a278.6,278.6,0,0,1,114.45,24.43,293.64,293.64,0,0,1,93.76,66.85,313.71,313.71,0,0,1,63.47,99.53,331.78,331.78,0,0,1,0,244.38,313.75,313.75,0,0,1-63.47,99.54,293.8,293.8,0,0,1-93.76,66.85,280.41,280.41,0,0,1-228.9,0,293.91,293.91,0,0,1-93.76-66.85,313.75,313.75,0,0,1-63.47-99.54,331.78,331.78,0,0,1,0-244.38,313.71,313.71,0,0,1,63.47-99.53,293.75,293.75,0,0,1,93.76-66.85A278.6,278.6,0,0,1,959.6,227.49m0-20c-174,0-315,149.09-315,333s141,333,315,333,315-149.09,315-333-141-333-315-333Z" transform="translate(-644.6 -207.49)"/><path class="cls-1" d="M959,228.76c13.49,0,34.94,25.72,52.43,83.17,18.56,60.94,28.78,142.34,28.78,229.2S1030,709.38,1011.43,770.32c-17.49,57.46-38.94,83.17-52.43,83.17s-34.93-25.71-52.43-83.17C888,709.38,877.8,628,877.8,541.13S888,372.87,906.57,311.93c17.5-57.45,38.94-83.17,52.43-83.17m0-20c-55.89,0-101.2,148.81-101.2,332.37S903.11,873.49,959,873.49s101.21-148.8,101.21-332.36S1014.9,208.76,959,208.76Z" transform="translate(-644.6 -207.49)"/><path class="cls-1" d="M759.66,342.87c26.61,0,65.05,11.83,108.24,33.3,46.39,23.06,96.21,56,144.08,95.28,63.64,52.21,116.73,109.61,149.49,161.64,15,23.9,25.12,45.87,29.13,63.55,2.3,10.16,3.75,24-2.43,32-5.91,7.68-18.7,9.3-28.39,9.3-26.61,0-65-11.83-108.24-33.3-46.38-23.06-96.2-56-144.08-95.28C843.82,557.14,790.74,499.73,758,447.71c-15-23.9-25.12-45.87-29.13-63.55-2.3-10.16-3.75-24,2.43-32,5.92-7.69,18.71-9.3,28.39-9.3m0-20c-20,0-35.31,5.5-44.24,17.11-35.87,46.61,44.43,174.14,179.36,284.83,101.32,83.12,204.64,133.12,265,133.12,20,0,35.31-5.5,44.24-17.11,35.87-46.62-44.43-174.14-179.35-284.83C923.34,372.86,820,322.87,759.66,322.87Z" transform="translate(-644.6 -207.49)"/><path class="cls-1" d="M1159.74,330.82c11.47,0,19.32,2.56,23.36,7.61,8.49,10.66,6.82,42.7-25.85,97.94-32,54.19-84.24,114.81-147,170.71-48.54,43.27-99,79.74-145.92,105.47-43.57,23.9-81.7,37.06-107.38,37.06-11.46,0-19.32-2.56-23.35-7.62-8.5-10.65-6.83-42.7,25.84-97.93,32.06-54.19,84.24-114.82,147-170.71,48.55-43.28,99-79.75,145.92-105.48,43.57-23.89,81.71-37.05,107.38-37.05m0-20c-59.07,0-164,56.18-266.61,147.6C760.38,576.75,682,709.29,718,754.46c8.2,10.28,21.61,15.15,39,15.15,59.07,0,164-56.19,266.61-147.6,132.75-118.33,211.15-250.88,175.12-296-8.19-10.27-21.61-15.14-39-15.14Z" transform="translate(-644.6 -207.49)"/><text x="-644.6" y="-207.49"/><ellipse cx="313.54" cy="282.04" rx="78.66" ry="81.53"/><path d="M1069.75,853.15c-74,27.21-148.14,27-222.56,0V669.2a89.57,89.57,0,0,1,89.57-89.56h43.43a89.56,89.56,0,0,1,89.56,89.56Z" transform="translate(-644.6 -207.49)"/></svg>